<?xml version="1.0" encoding="UTF-8"?>
<svg id="Layer_1" xmlns="http://www.w3.org/2000/svg" viewBox="0 0 300 60">
  <defs>
    <style>
      .cls-1 {
        fill: #c61881;
      }

      .cls-2 {
        fill: #0069b3;
      }

      .cls-3 {
        fill: #0071bb;
      }

      .cls-4 {
        fill: #fff;
      }

      .cls-5 {
        fill: #009ee2;
      }

      .cls-6 {
        fill: #231f20;
      }

      .cls-7 {
        fill: #a87c4f;
      }

      .cls-8 {
        fill: #e683ad;
      }

      .cls-9 {
        fill: #0d181c;
      }

      .cls-10 {
        fill: #004f9e;
      }

      .cls-11 {
        fill: #c60678;
      }
    </style>
  </defs>
  <g>
    <path class="cls-2" d="M90.42,38.41c-.52.14-2.78.55-5.42.55-4.12,0-9.71-2.02-9.71-10.5v-5.05c0-8.61,5.6-10.5,9.71-10.5,2.64,0,4.91.41,5.42.55.45.14.76.31.76.79v2.3c0,.41-.17.72-.69.72h-.07c-1.2-.1-3.54-.27-5.35-.27-2.88,0-4.98,1.54-4.98,6.42v5.05c0,4.77,2.09,6.42,4.98,6.42,1.82,0,4.15-.17,5.35-.27h.07c.52,0,.69.31.69.72v2.3c0,.48-.31.65-.76.79Z"/>
    <path class="cls-2" d="M113.62,38.68h-3.64c-.31,0-.58-.27-.65-.58l-1.58-6.52h-7.9l-1.58,6.52c-.07.31-.34.58-.65.58h-3.64c-.34,0-.62-.24-.62-.58,0-.03.03-.1.03-.17l5.63-21.52c.82-3.19,3.29-3.5,4.77-3.5s3.95.31,4.77,3.5l5.63,21.52c0,.07.03.14.03.17,0,.34-.27.58-.62.58ZM104.35,17.47c-.1-.41-.2-.55-.55-.55s-.45.14-.55.55l-2.47,10.19h6.04l-2.47-10.19Z"/>
    <path class="cls-2" d="M135.58,38.68h-4.19c-.38,0-.51-.34-.69-.69l-4.94-9.16h-.48c-.89,0-2.27-.1-3.05-.14v9.3c0,.38-.27.69-.65.69h-3.43c-.38,0-.69-.31-.69-.69V14.39c0-.69.41-.93,1.1-1.03,1.78-.27,4.22-.45,6.73-.45,5.29,0,9.88,1.89,9.88,7.76v.31c0,3.64-1.82,5.9-4.63,7l5.39,10.02c.07.1.07.21.07.27,0,.24-.14.41-.41.41ZM130.44,20.67c0-2.57-1.72-3.67-5.15-3.67-.72,0-2.44.07-3.05.14v7.72c.55.03,2.47.1,3.05.1,3.53,0,5.15-.96,5.15-3.98v-.31Z"/>
    <path class="cls-2" d="M165.73,16.93h-6.07v21.06c0,.38-.31.69-.69.69h-3.43c-.38,0-.69-.31-.69-.69v-21.06h-6.07c-.38,0-.69-.24-.69-.62v-2.74c0-.38.31-.66.69-.66h16.96c.38,0,.69.28.69.66v2.74c0,.38-.31.62-.69.62Z"/>
    <path class="cls-2" d="M187.99,38.68h-3.64c-.31,0-.58-.27-.65-.58l-1.58-6.52h-7.89l-1.58,6.52c-.07.31-.34.58-.65.58h-3.64c-.34,0-.62-.24-.62-.58,0-.03.03-.1.03-.17l5.63-21.52c.82-3.19,3.29-3.5,4.77-3.5s3.95.31,4.77,3.5l5.63,21.52c0,.07.03.14.03.17,0,.34-.27.58-.62.58ZM178.73,17.47c-.1-.41-.21-.55-.55-.55s-.45.14-.55.55l-2.47,10.19h6.04l-2.47-10.19Z"/>
    <path class="cls-2" d="M198.25,38.96c-2.57,0-4.43-.24-6.07-.62-.34-.07-.65-.31-.65-.69v-2.47c0-.38.31-.65.65-.65h.07c1.37.17,4.8.34,6.07.34,3.05,0,3.98-1.1,3.98-3.09,0-1.34-.65-2.03-2.92-3.36l-4.53-2.71c-3.19-1.89-4.05-3.88-4.05-6.28,0-3.77,2.2-6.52,8.58-6.52,2.26,0,5.42.34,6.59.62.34.07.62.31.62.65v2.54c0,.34-.24.62-.58.62h-.07c-2.27-.21-4.53-.34-6.76-.34-2.54,0-3.6.89-3.6,2.44,0,1.13.58,1.82,2.81,3.05l4.12,2.3c3.77,2.09,4.77,4.29,4.77,7,0,3.47-2.16,7.17-9.03,7.17Z"/>
    <g>
      <path class="cls-10" d="M78.8,46.99h-.63c-.07,0-.13-.06-.13-.13v-1.95h-1.81v1.95c0,.07-.06.13-.13.13h-.63c-.07,0-.13-.06-.13-.13v-4.48c0-.07.06-.12.13-.12h.63c.07,0,.13.05.13.12v1.75h1.81v-1.75c0-.07.06-.12.13-.12h.63c.07,0,.13.05.13.12v4.48c0,.07-.06.13-.13.13Z"/>
      <path class="cls-10" d="M81.56,47.04c-1.05,0-1.81-.59-1.81-1.98v-.86c0-1.4.76-1.98,1.81-1.98s1.81.58,1.81,1.98v.86c0,1.4-.76,1.98-1.81,1.98ZM82.48,44.2c0-.84-.3-1.21-.92-1.21s-.92.38-.92,1.21v.86c0,.84.3,1.21.92,1.21s.92-.38.92-1.21v-.86Z"/>
      <path class="cls-10" d="M85.39,47.04c-.48,0-.82-.04-1.12-.11-.06-.01-.12-.06-.12-.13v-.46c0-.07.06-.12.12-.12h.01c.25.03.89.06,1.12.06.57,0,.74-.2.74-.57,0-.25-.12-.38-.54-.62l-.84-.5c-.59-.35-.75-.72-.75-1.16,0-.7.41-1.21,1.59-1.21.42,0,1,.06,1.22.11.06.01.11.06.11.12v.47c0,.06-.04.11-.11.11h-.01c-.42-.04-.84-.06-1.25-.06-.47,0-.67.17-.67.45,0,.21.11.34.52.57l.76.43c.7.39.88.79.88,1.3,0,.64-.4,1.33-1.67,1.33Z"/>
      <path class="cls-10" d="M89.28,45.23c-.16,0-.42-.02-.57-.03v1.66c0,.07-.05.13-.12.13h-.64c-.07,0-.13-.06-.13-.13v-4.38c0-.13.08-.17.2-.19.33-.05.78-.08,1.25-.08.98,0,1.83.34,1.83,1.47v.06c0,1.13-.85,1.49-1.83,1.49ZM90.23,43.68c0-.53-.32-.74-.95-.74-.13,0-.45.01-.57.03v1.51c.1,0,.46.02.57.02.69,0,.95-.25.95-.76v-.06Z"/>
      <path class="cls-10" d="M92.57,46.99h-.63c-.07,0-.13-.06-.13-.13v-4.48c0-.07.06-.12.13-.12h.63c.07,0,.13.05.13.12v4.48c0,.07-.06.13-.13.13Z"/>
      <path class="cls-10" d="M96.57,43h-1.11v3.86c0,.07-.06.13-.13.13h-.63c-.07,0-.13-.06-.13-.13v-3.86h-1.11c-.07,0-.13-.04-.13-.11v-.5c0-.07.06-.12.13-.12h3.11c.07,0,.13.05.13.12v.5c0,.07-.06.11-.13.11Z"/>
      <path class="cls-10" d="M100.72,46.99h-.67c-.06,0-.11-.05-.12-.11l-.29-1.21h-1.46l-.29,1.21c-.01.06-.06.11-.12.11h-.67c-.06,0-.11-.04-.11-.11,0,0,0-.02,0-.03l1.04-3.99c.15-.59.61-.65.89-.65s.73.06.88.65l1.04,3.99s0,.03,0,.03c0,.06-.05.11-.12.11ZM99.01,43.06c-.02-.08-.04-.1-.1-.1s-.08.03-.1.1l-.46,1.89h1.12l-.46-1.89Z"/>
      <path class="cls-10" d="M103.99,46.95c-.19.04-.74.09-1.08.09-.83,0-1.47-.22-1.47-1.3v-3.34c0-.07.06-.13.13-.13h.63c.07,0,.13.06.13.13v3.34c0,.42.13.55.5.55h1.17c.07,0,.13.06.13.13v.41c0,.09-.03.12-.13.13Z"/>
      <path class="cls-10" d="M110.13,46.99h-.71s-.06,0-.11-.05l-.23-.25c-.32.22-.73.35-1.21.35-.92,0-1.68-.35-1.68-1.22v-.06c0-.53.31-.86.87-1.21l-.04-.05c-.54-.62-.6-.9-.6-1.18v-.06c0-.63.48-1.05,1.45-1.05.84,0,1.37.42,1.37,1.05v.06c0,.6-.47.97-.94,1.27l-.15.1.95,1.02c.11-.26.17-.57.17-.91v-.08c0-.07.04-.13.11-.13h.46c.07,0,.11.06.11.13v.08c0,.54-.13,1.02-.38,1.41l.62.66s.03.04.03.06c0,.04-.03.07-.07.07ZM107.53,45.04c-.38.23-.47.41-.47.71v.06c0,.41.35.6.81.6.32,0,.57-.07.77-.19l-1.11-1.18ZM108.47,43.26c0-.29-.21-.45-.61-.45-.43,0-.7.16-.7.45v.06c0,.2.01.37.44.8l.06.06.19-.11c.48-.29.62-.44.62-.74v-.06Z"/>
      <path class="cls-10" d="M113.22,46.99h-.63c-.07,0-.13-.06-.13-.13v-4.48c0-.07.06-.12.13-.12h.63c.07,0,.13.05.13.12v4.48c0,.07-.06.13-.13.13Z"/>
      <path class="cls-10" d="M117.63,46.99h-.64c-.15,0-.29,0-.39-.23l-1.41-3.1s-.04-.05-.06-.05c-.02,0-.03.01-.03.05v3.2c0,.07-.05.13-.12.13h-.54c-.07,0-.13-.06-.13-.13v-4.34c0-.14.12-.25.25-.25h.69c.13,0,.2.04.28.2l1.48,3.27s.03.05.05.05c.01,0,.03-.02.03-.06v-3.35c0-.07.05-.12.12-.12h.55c.07,0,.12.05.12.12v4.35c0,.14-.11.26-.25.26Z"/>
      <path class="cls-10" d="M120.02,47.04c-.48,0-.82-.04-1.13-.11-.06-.01-.12-.06-.12-.13v-.46c0-.07.06-.12.12-.12h.01c.25.03.89.06,1.13.06.57,0,.74-.2.74-.57,0-.25-.12-.38-.54-.62l-.84-.5c-.59-.35-.75-.72-.75-1.16,0-.7.41-1.21,1.59-1.21.42,0,1,.06,1.22.11.06.01.12.06.12.12v.47c0,.06-.04.11-.11.11h-.01c-.42-.04-.84-.06-1.25-.06-.47,0-.67.17-.67.45,0,.21.11.34.52.57l.76.43c.7.39.88.79.88,1.3,0,.64-.4,1.33-1.67,1.33Z"/>
      <path class="cls-10" d="M125.38,43h-1.11v3.86c0,.07-.06.13-.13.13h-.63c-.07,0-.13-.06-.13-.13v-3.86h-1.11c-.07,0-.13-.04-.13-.11v-.5c0-.07.06-.12.13-.12h3.11c.07,0,.13.05.13.12v.5c0,.07-.06.11-.13.11Z"/>
      <path class="cls-10" d="M126.9,46.99h-.63c-.07,0-.13-.06-.13-.13v-4.48c0-.07.06-.12.13-.12h.63c.07,0,.13.05.13.12v4.48c0,.07-.06.13-.13.13Z"/>
      <path class="cls-10" d="M130.9,43h-1.11v3.86c0,.07-.06.13-.13.13h-.63c-.07,0-.13-.06-.13-.13v-3.86h-1.11c-.07,0-.13-.04-.13-.11v-.5c0-.07.06-.12.13-.12h3.11c.07,0,.13.05.13.12v.5c0,.07-.06.11-.13.11Z"/>
      <path class="cls-10" d="M133.38,47.04c-1.02,0-1.75-.45-1.75-1.8v-2.86c0-.07.06-.12.13-.12h.63c.07,0,.13.05.13.12v2.86c0,.72.18,1.07.86,1.07s.86-.34.86-1.07v-2.86c0-.07.06-.12.13-.12h.63c.07,0,.13.05.13.12v2.86c0,1.35-.72,1.8-1.75,1.8Z"/>
      <path class="cls-10" d="M138.97,43h-1.11v3.86c0,.07-.06.13-.13.13h-.63c-.07,0-.13-.06-.13-.13v-3.86h-1.11c-.07,0-.13-.04-.13-.11v-.5c0-.07.06-.12.13-.12h3.11c.07,0,.13.05.13.12v.5c0,.07-.06.11-.13.11Z"/>
      <path class="cls-10" d="M142.41,46.95c-.2.03-.45.09-1.21.09-.83,0-1.47-.22-1.47-1.3v-2.22c0-1.08.64-1.3,1.47-1.3.76,0,1,.06,1.21.09.1.01.13.04.13.13v.41c0,.07-.06.13-.13.13h-1.3c-.37,0-.5.13-.5.55v.69h1.72c.07,0,.13.06.13.13v.46c0,.07-.06.13-.13.13h-1.72v.82c0,.42.13.55.5.55h1.3c.07,0,.13.06.13.13v.41c0,.09-.03.12-.13.13Z"/>
      <path class="cls-10" d="M146.67,47.04c-1.05,0-1.81-.59-1.81-1.98v-.86c0-1.4.76-1.98,1.81-1.98s1.81.58,1.81,1.98v.86c0,1.4-.76,1.98-1.81,1.98ZM147.59,44.2c0-.84-.3-1.21-.92-1.21s-.92.38-.92,1.21v.86c0,.84.3,1.21.92,1.21s.92-.38.92-1.21v-.86Z"/>
      <path class="cls-10" d="M151.99,42.97h-1.3c-.37,0-.5.13-.5.55v.69h1.72c.07,0,.13.06.13.13v.46c0,.07-.06.13-.13.13h-1.72v1.95c0,.07-.06.13-.13.13h-.62c-.07,0-.13-.06-.13-.13v-3.35c0-1.08.64-1.3,1.47-1.3.76,0,1.01.06,1.21.09.1.01.13.04.13.13v.41c0,.07-.06.13-.13.13Z"/>
      <path class="cls-10" d="M158.01,46.99h-.63c-.07,0-.13-.06-.13-.13v-1.95h-1.81v1.95c0,.07-.06.13-.13.13h-.63c-.07,0-.13-.06-.13-.13v-4.48c0-.07.06-.12.13-.12h.63c.07,0,.13.05.13.12v1.75h1.81v-1.75c0-.07.06-.12.13-.12h.63c.07,0,.13.05.13.12v4.48c0,.07-.06.13-.13.13Z"/>
      <path class="cls-10" d="M161.77,46.95c-.2.03-.45.09-1.21.09-.83,0-1.47-.22-1.47-1.3v-2.22c0-1.08.64-1.3,1.47-1.3.76,0,1,.06,1.21.09.1.01.13.04.13.13v.41c0,.07-.06.13-.13.13h-1.3c-.37,0-.5.13-.5.55v.69h1.72c.07,0,.13.06.13.13v.46c0,.07-.06.13-.13.13h-1.72v.82c0,.42.13.55.5.55h1.3c.07,0,.13.06.13.13v.41c0,.09-.03.12-.13.13Z"/>
      <path class="cls-10" d="M166.15,46.99h-.67c-.06,0-.11-.05-.12-.11l-.29-1.21h-1.46l-.29,1.21c-.01.06-.07.11-.12.11h-.68c-.06,0-.11-.04-.11-.11,0,0,0-.02,0-.03l1.04-3.99c.15-.59.61-.65.88-.65s.73.06.88.65l1.04,3.99s0,.03,0,.03c0,.06-.05.11-.11.11ZM164.44,43.06c-.02-.08-.04-.1-.1-.1s-.08.03-.1.1l-.46,1.89h1.12l-.46-1.89Z"/>
      <path class="cls-10" d="M169.42,46.95c-.19.04-.74.09-1.08.09-.83,0-1.47-.22-1.47-1.3v-3.34c0-.07.06-.13.13-.13h.63c.07,0,.13.06.13.13v3.34c0,.42.13.55.5.55h1.17c.07,0,.13.06.13.13v.41c0,.09-.03.12-.13.13Z"/>
      <path class="cls-10" d="M173.07,43h-1.11v3.86c0,.07-.06.13-.13.13h-.63c-.07,0-.13-.06-.13-.13v-3.86h-1.11c-.07,0-.13-.04-.13-.11v-.5c0-.07.06-.12.13-.12h3.11c.07,0,.13.05.13.12v.5c0,.07-.06.11-.13.11Z"/>
      <path class="cls-10" d="M177.28,46.99h-.63c-.07,0-.13-.06-.13-.13v-1.95h-1.81v1.95c0,.07-.06.13-.13.13h-.63c-.07,0-.13-.06-.13-.13v-4.48c0-.07.06-.12.13-.12h.63c.07,0,.13.05.13.12v1.75h1.81v-1.75c0-.07.06-.12.13-.12h.63c.07,0,.13.05.13.12v4.48c0,.07-.06.13-.13.13Z"/>
      <path class="cls-10" d="M181.14,47.04c-.48,0-.82-.04-1.13-.11-.06-.01-.12-.06-.12-.13v-.46c0-.07.06-.12.12-.12h.01c.25.03.89.06,1.13.06.57,0,.74-.2.74-.57,0-.25-.12-.38-.54-.62l-.84-.5c-.59-.35-.75-.72-.75-1.16,0-.7.41-1.21,1.59-1.21.42,0,1,.06,1.22.11.06.01.11.06.11.12v.47c0,.06-.04.11-.11.11h0c-.43-.04-.85-.06-1.26-.06-.47,0-.67.17-.67.45,0,.21.11.34.52.57l.76.43c.7.39.88.79.88,1.3,0,.64-.4,1.33-1.67,1.33Z"/>
      <path class="cls-10" d="M186.25,46.94c-.1.03-.52.1-1.01.1-.76,0-1.8-.37-1.8-1.95v-.93c0-1.6,1.04-1.95,1.8-1.95.49,0,.91.08,1.01.1.08.03.14.06.14.15v.43c0,.08-.03.13-.13.13h-.01c-.22-.02-.65-.05-.99-.05-.53,0-.92.29-.92,1.19v.93c0,.88.39,1.19.92,1.19.34,0,.77-.03.99-.05h.01c.1,0,.13.06.13.13v.43c0,.09-.06.12-.14.15Z"/>
      <path class="cls-10" d="M187.91,46.99h-.63c-.07,0-.13-.06-.13-.13v-4.48c0-.07.06-.12.13-.12h.63c.07,0,.13.05.13.12v4.48c0,.07-.06.13-.13.13Z"/>
      <path class="cls-10" d="M191.67,46.95c-.2.03-.45.09-1.21.09-.83,0-1.47-.22-1.47-1.3v-2.22c0-1.08.64-1.3,1.47-1.3.76,0,1,.06,1.21.09.1.01.13.04.13.13v.41c0,.07-.06.13-.13.13h-1.3c-.37,0-.5.13-.5.55v.69h1.72c.07,0,.13.06.13.13v.46c0,.07-.06.13-.13.13h-1.72v.82c0,.42.13.55.5.55h1.3c.07,0,.13.06.13.13v.41c0,.09-.03.12-.13.13Z"/>
      <path class="cls-10" d="M195.98,46.99h-.64c-.15,0-.29,0-.39-.23l-1.41-3.1s-.04-.05-.06-.05-.03.01-.03.05v3.2c0,.07-.05.13-.12.13h-.54c-.07,0-.13-.06-.13-.13v-4.34c0-.14.11-.25.25-.25h.69c.13,0,.2.04.28.2l1.48,3.27s.03.05.05.05c.01,0,.03-.02.03-.06v-3.35c0-.07.05-.12.12-.12h.55c.07,0,.12.05.12.12v4.35c0,.14-.11.26-.25.26Z"/>
      <path class="cls-10" d="M199.86,46.94c-.1.03-.52.1-1.01.1-.76,0-1.8-.37-1.8-1.95v-.93c0-1.6,1.04-1.95,1.8-1.95.49,0,.91.08,1.01.1.08.03.14.06.14.15v.43c0,.08-.03.13-.13.13h-.01c-.22-.02-.66-.05-.99-.05-.53,0-.92.29-.92,1.19v.93c0,.88.39,1.19.92,1.19.34,0,.77-.03.99-.05h.01c.1,0,.13.06.13.13v.43c0,.09-.06.12-.14.15Z"/>
      <path class="cls-10" d="M203.44,46.95c-.2.03-.45.09-1.21.09-.83,0-1.47-.22-1.47-1.3v-2.22c0-1.08.64-1.3,1.47-1.3.76,0,1,.06,1.21.09.1.01.13.04.13.13v.41c0,.07-.06.13-.13.13h-1.3c-.37,0-.5.13-.5.55v.69h1.72c.07,0,.13.06.13.13v.46c0,.07-.06.13-.13.13h-1.72v.82c0,.42.13.55.5.55h1.3c.07,0,.13.06.13.13v.41c0,.09-.03.12-.13.13Z"/>
      <path class="cls-10" d="M205.62,47.04c-.48,0-.82-.04-1.13-.11-.06-.01-.12-.06-.12-.13v-.46c0-.07.06-.12.12-.12h.01c.25.03.89.06,1.13.06.57,0,.74-.2.74-.57,0-.25-.12-.38-.54-.62l-.84-.5c-.59-.35-.75-.72-.75-1.16,0-.7.41-1.21,1.59-1.21.42,0,1,.06,1.22.11.06.01.11.06.11.12v.47c0,.06-.04.11-.11.11h0c-.43-.04-.85-.06-1.26-.06-.47,0-.67.17-.67.45,0,.21.11.34.52.57l.76.43c.7.39.88.79.88,1.3,0,.64-.4,1.33-1.67,1.33Z"/>
    </g>
    <g>
      <path class="cls-11" d="M139.87,37.99c0,.38.31.69.7.69h3.43c.38,0,.69-.31.69-.69v-19.63h-4.82v19.63Z"/>
      <path class="cls-11" d="M144.7,13.57c0-.38-.31-.66-.69-.66h-3.43c-.38,0-.7.28-.7.66v3.35h4.82v-3.35Z"/>
    </g>
    <g>
      <path class="cls-11" d="M68.89,22.19h-5.96c-.92,0-1.67-.75-1.67-1.67v-5.96c0-.92-.75-1.67-1.67-1.67h-12.26c-.92,0-1.67.75-1.67,1.67v5.96c0,.92-.75,1.67-1.67,1.67h-5.96c-.92,0-1.67.75-1.67,1.67v12.27c0,.92.75,1.67,1.67,1.67h5.96c.92,0,1.67.75,1.67,1.67v5.95c0,.92.75,1.67,1.67,1.67h12.26c.92,0,1.67-.75,1.67-1.67v-5.95c0-.92.75-1.67,1.67-1.67h5.96c.92,0,1.67-.75,1.67-1.67v-12.27c0-.92-.75-1.67-1.67-1.67Z"/>
      <g>
        <g>
          <path class="cls-4" d="M45.05,29.54v.19s0,.04-.02.05l-.84.69h.82s.05.02.05.04v.13s-.02.04-.05.04h-1.73s-.05-.02-.05-.05v-.13s.02-.05.05-.05h.79s-.82-.71-.82-.71c-.02-.01-.02-.02-.02-.05v-.18s.01-.03.03-.03c0,0,.02,0,.02,0l.83.74.88-.74s.02-.01.03-.01c.01,0,.02,0,.02.03Z"/>
          <path class="cls-4" d="M45.25,28.3c0,.09-.04.33-.06.47-.06.34-.21.49-.53.44l-.93-.15c-.32-.05-.42-.25-.37-.59.02-.14.07-.37.09-.47,0-.01.02-.02.04-.02l.12.02s.03.01.02.03l-.08.47c-.04.26.02.31.2.34l.33.06.12-.74s.03-.04.06-.04l.09.02s.05.03.04.06l-.12.74.41.07c.18.03.26,0,.3-.26l.08-.47s.02-.02.03-.02l.12.02s.03.01.03.03Z"/>
          <path class="cls-4" d="M45.71,26.87l-.05.14s-.04.06-.06.06l-1.61.24s0,0,0,0c0,0,0,0,0,0l1.35.47s.04.03.03.06l-.04.12s-.02.04-.04.03l-1.63-.57s-.05-.05-.04-.09l.04-.13c.02-.07.04-.07.08-.08l1.6-.24h0s0,0,0,0l-1.35-.48s-.04-.03-.03-.06l.04-.12s.04-.04.06-.03l1.61.56s.06.05.04.09Z"/>
          <path class="cls-4" d="M46.19,25.99c-.19.33-.53.46-1,.19l-.27-.16c-.47-.27-.53-.63-.33-.96.19-.33.53-.46,1-.19l.28.16c.47.27.53.63.33.96ZM45.47,25.07c-.36-.21-.58-.14-.71.09-.13.23-.08.46.27.66l.27.16c.36.21.58.14.71-.09.14-.23.08-.46-.27-.66l-.27-.16Z"/>
          <path class="cls-4" d="M46.14,23.28l-.31.37,1.21,1.02s.03.04,0,.07l-.09.1s-.04.02-.07,0l-1.21-1.02-.31.37s-.04.03-.06.01l-.08-.07s-.02-.05,0-.07l.76-.9s.04-.02.06,0l.08.07s.02.04,0,.06Z"/>
          <path class="cls-4" d="M47.75,24.01l-.1.09s-.05.01-.07,0l-1.18-1.26s-.02-.04,0-.06l.1-.09s.05-.02.06,0l1.18,1.26s.02.05,0,.07Z"/>
          <path class="cls-4" d="M48.85,23.11c-.07.08-.14.14-.31.27-.24.18-.62.26-.97-.22l-.2-.27c-.36-.48-.18-.82.06-1,.13-.09.26-.16.36-.21.02-.01.04-.02.05,0l.07.1s.01.02,0,.04c0,0,0,0,0,0-.08.05-.23.14-.34.23-.19.14-.26.37,0,.7l.2.27c.25.33.48.34.67.19.11-.08.25-.2.31-.26,0,0,0,0,0,0,.02-.02.04-.01.05,0l.06.08s0,.05,0,.07Z"/>
          <path class="cls-4" d="M50.49,22.29c-.05.04-.21.12-.43.22-.24.11-.5.17-.66-.2l-.55-1.21s0-.05.02-.06l.11-.05s.05,0,.06.02l.55,1.21c.08.17.14.21.38.11l.43-.2s.03,0,.04.02l.05.1s0,.03,0,.04Z"/>
          <path class="cls-4" d="M51.29,22.08c-.37.1-.7-.05-.84-.57l-.08-.31c-.14-.53.07-.81.44-.91.37-.1.7.05.84.57l.08.31c.14.53-.07.81-.44.91ZM51.44,20.92c-.11-.4-.31-.51-.57-.44-.26.07-.38.26-.28.66l.08.31c.11.4.31.51.57.44.26-.07.38-.26.27-.66l-.08-.31Z"/>
          <path class="cls-4" d="M53.35,19.99l-.33,1.62c-.03.16-.14.2-.23.21-.09,0-.21-.02-.26-.17l-.57-1.55s0,0,0-.01c0-.02.02-.04.04-.05h.14s.04,0,.05.02l.54,1.52s.03.05.05.05c.02,0,.04-.02.04-.05l.31-1.59s.02-.04.04-.04h.14s.04,0,.05.03c0,0,0,.01,0,.01Z"/>
          <path class="cls-4" d="M54.7,21.87c-.09,0-.33-.02-.48-.03-.34-.03-.51-.18-.48-.5l.08-.94c.03-.33.22-.44.56-.41.14.01.37.04.48.06.01,0,.02.02.02.04v.12s-.02.03-.04.03l-.47-.04c-.26-.02-.31.04-.32.23l-.03.34.75.07s.05.03.04.05v.09s-.04.05-.06.04l-.75-.07-.04.41c-.02.19.02.26.28.28l.47.04s.03.01.03.03v.12s-.02.03-.04.03Z"/>
          <path class="cls-4" d="M55.95,22.18c-.16-.05-.28-.11-.38-.16-.04-.02-.04-.03-.03-.06l.03-.09s.03-.03.05-.02c0,0,0,0,0,0,.11.04.28.1.38.14.28.09.39,0,.44-.16.04-.12-.01-.2-.18-.4l-.18-.21c-.17-.2-.24-.35-.18-.54.09-.28.33-.35.69-.24.14.04.31.11.4.16.02.01.03.03.03.05l-.03.1s-.03.03-.05.02c0,0,0,0,0,0-.1-.04-.26-.1-.4-.14-.24-.08-.36-.06-.41.11-.04.11.02.2.16.36l.17.2c.22.25.27.41.22.59-.07.22-.27.43-.73.28Z"/>
          <path class="cls-4" d="M57.87,23.02l-.13-.07s-.03-.03-.02-.05l.12-.57-.56-.29-.4.43s-.04.02-.06.01l-.13-.07s-.03-.03-.02-.05c0,0,0-.01.01-.01l1.13-1.21c.1-.11.22-.09.31-.05.08.04.17.12.14.28l-.33,1.63s0,.01,0,.02c0,.02-.03.03-.06.02ZM58.06,21.31s0-.05-.02-.06c-.02-.01-.05,0-.06.02l-.57.61.48.25.17-.82Z"/>
          <path class="cls-4" d="M60.17,22.53l-1.33.99c-.13.1-.24.05-.31,0-.07-.05-.14-.15-.09-.3l.61-1.54s0,0,0-.01c.01-.02.04-.02.06,0l.11.09s.02.04.01.06l-.61,1.5s-.01.05,0,.07c.02.01.04,0,.07-.01l1.29-.98s.04-.02.06,0l.11.09s.02.04,0,.06c0,0,0,0-.01,0Z"/>
          <path class="cls-4" d="M59.94,24.84c-.07-.06-.24-.23-.34-.34-.23-.25-.26-.47-.02-.69l.69-.64c.24-.22.46-.18.69.07.1.11.25.28.32.36,0,.01,0,.03,0,.04l-.09.08s-.03.01-.04,0l-.32-.35c-.18-.19-.26-.17-.39-.05l-.25.23.51.55s.02.05,0,.07l-.07.06s-.05.02-.07,0l-.51-.55-.3.28c-.13.13-.16.2.02.39l.32.35s0,.03,0,.04l-.09.08s-.03.01-.04,0Z"/>
          <path class="cls-4" d="M60.34,25.43c-.1-.14-.15-.26-.2-.36-.02-.04-.01-.05.01-.06l.08-.05s.04,0,.06.01c0,0,0,0,0,0,.06.1.15.25.22.34.17.24.31.24.45.14.1-.07.12-.17.11-.43v-.28c-.03-.26.01-.43.17-.54.25-.17.48-.07.69.24.08.12.18.28.21.37.01.02.01.04-.01.06l-.09.06s-.04,0-.06-.01t0,0c-.05-.09-.14-.24-.22-.36-.14-.21-.25-.27-.4-.17-.1.06-.11.17-.1.39l.02.26c.02.33-.03.49-.2.6-.19.13-.47.17-.75-.22Z"/>
          <path class="cls-4" d="M61.46,27.59c-.03-.06-.11-.22-.2-.44-.1-.24-.14-.5.23-.65l1.24-.49s.05,0,.06.03l.05.12s0,.05-.03.06l-1.24.49c-.17.07-.22.13-.13.37l.17.44s0,.03-.02.04l-.11.04s-.03,0-.04-.01Z"/>
          <path class="cls-4" d="M61.56,28l-.04-.13s.01-.05.04-.06l1.67-.46s.05,0,.06.03l.04.13s0,.05-.03.06l-1.67.46s-.05,0-.06-.03Z"/>
          <path class="cls-4" d="M62.66,29.22l-.12-.74-.79.13s-.05-.01-.06-.04l-.02-.12s.01-.05.04-.06l1.32-.21c.32-.05.48.11.53.44.02.14.05.37.06.47,0,.01-.02.03-.03.03l-.12.02s-.03,0-.03-.02l-.07-.47c-.04-.26-.11-.29-.3-.26l-.34.05.12.74s-.01.05-.04.06h-.09s-.05,0-.06-.03Z"/>
          <path class="cls-4" d="M61.84,30.67c-.01-.09-.01-.33-.01-.48,0-.34.13-.52.45-.52h.94c.33,0,.46.17.46.52,0,.14,0,.38-.01.48,0,.02-.02.02-.03.03h-.12s-.03,0-.03-.03v-.47c0-.26-.07-.3-.26-.3h-.34s0,.76,0,.76c0,.03-.02.05-.05.05h-.09s-.05-.02-.05-.05v-.75s-.42,0-.42,0c-.19,0-.26.04-.25.3v.47s-.01.03-.03.03h-.12s-.03,0-.03-.02Z"/>
        </g>
        <g>
          <path class="cls-4" d="M59.37,31.85s0-.08,0-.12c-.1-3.17-2.71-5.71-5.9-5.71h0c-3.2,0-5.81,2.55-5.91,5.71,0,.04,0,.08,0,.12,0,.02,0,.03,0,.03,0,.01,0,.02,0,.04,0,3.26,2.65,5.93,5.92,5.93s5.92-2.67,5.92-5.93v-.07ZM53.45,35.43c-.47,0-.92-.04-1.34-.11-.1-.4-.19-.87-.25-1.38.5.04,1.05.07,1.59.07s1.08-.03,1.59-.07c-.06.51-.15.98-.25,1.38-.43.07-.88.11-1.34.11M54.68,35.72c-.34,1.1-.8,1.75-1.23,1.75s-.89-.65-1.23-1.75c.4.06.81.09,1.23.09s.83-.03,1.23-.09M53.45,33.64c-.58,0-1.13-.03-1.64-.07-.06-.52-.08-1.07-.08-1.66s.03-1.13.08-1.63c.51-.05,1.06-.08,1.64-.08s1.13.03,1.64.08c.05.51.09,1.05.09,1.63s-.03,1.14-.09,1.66c-.5.03-1.06.07-1.64.07M47.91,31.91c.02-.41.64-.86,1.68-1.19-.06.39-.08.79-.08,1.21s.03.82.08,1.21c-1.01-.32-1.62-.74-1.68-1.15v-.07ZM49.88,31.92c0-.45.04-.9.11-1.31.42-.11.9-.21,1.44-.28-.05.52-.07,1.06-.07,1.6s.03,1.08.07,1.6c-.53-.07-1.02-.17-1.44-.27-.07-.43-.11-.87-.11-1.33M53.45,26.37h0c.41.02.85.61,1.19,1.63-.38-.06-.79-.08-1.19-.08s-.81.03-1.19.08c.32-1.02.77-1.61,1.19-1.63M53.45,28.29c.45,0,.89.04,1.3.1.12.44.23.96.29,1.51-.51-.04-1.05-.06-1.59-.06s-1.09.02-1.59.06c.07-.55.16-1.07.29-1.51.41-.06.85-.1,1.3-.1M55.47,30.32c.54.08,1.03.17,1.46.28.06.41.1.86.1,1.31s-.04.9-.1,1.33c-.43.1-.92.2-1.46.27.06-.52.09-1.04.09-1.6s-.02-1.08-.09-1.6M57.31,30.71c1.05.34,1.66.78,1.68,1.19,0,.03-.01.04-.01.07-.04.42-.66.84-1.67,1.15.06-.39.08-.79.08-1.21s-.02-.82-.08-1.21M57.56,30.4c-.1-.05-.2-.08-.31-.1-.08-.43-.19-.84-.34-1.22.95.48,1.65,1.17,1.94,1.95-.31-.24-.74-.45-1.29-.63M56.85,30.18c-.45-.09-.91-.18-1.42-.24-.06-.53-.14-1.03-.26-1.47.45.09.87.23,1.26.37.17.42.32.86.43,1.34M55.06,28.06c-.03-.08-.06-.16-.08-.24-.17-.53-.38-.95-.61-1.26.72.3,1.35.93,1.81,1.8-.37-.12-.74-.22-1.13-.3M51.93,27.82c-.03.08-.06.16-.08.24-.4.07-.78.17-1.13.3.46-.86,1.1-1.5,1.81-1.8-.23.31-.44.73-.6,1.26M51.73,28.47c-.11.44-.2.94-.26,1.47-.5.07-.97.15-1.41.24.11-.48.24-.92.43-1.34.39-.14.81-.28,1.25-.37M49.66,30.3c-.12.02-.21.06-.32.1-.54.18-.98.39-1.28.63.3-.79.99-1.47,1.94-1.95-.14.38-.25.79-.34,1.22M49.34,33.45c.11.04.21.07.32.1.07.38.16.74.27,1.09-.84-.46-1.48-1.05-1.79-1.75.3.21.7.41,1.2.57M50.06,33.66c.45.11.91.19,1.41.25.06.47.14.93.24,1.35-.46-.1-.89-.24-1.29-.41-.14-.37-.26-.77-.36-1.19M51.81,35.66c.03.13.06.27.11.37.17.53.37.95.6,1.25-.76-.3-1.42-1.01-1.89-1.94.36.12.76.24,1.18.32M54.98,36.03c.04-.1.08-.24.11-.37.41-.08.81-.2,1.17-.32-.46.93-1.13,1.64-1.89,1.94.23-.3.44-.73.61-1.25M55.2,35.25c.1-.41.18-.87.23-1.35.51-.06.98-.14,1.42-.25-.1.42-.22.81-.36,1.19-.4.17-.82.31-1.29.41M57.24,33.54c.11-.02.21-.05.31-.1.51-.16.91-.37,1.2-.57-.31.7-.95,1.29-1.79,1.75.11-.35.21-.7.28-1.09M58.63,29.95c-.46-.55-1.13-1.04-1.93-1.39-.35-.77-.83-1.41-1.39-1.86,1.53.54,2.75,1.73,3.32,3.25M51.6,26.71c-.56.45-1.03,1.08-1.39,1.86-.81.35-1.46.84-1.94,1.39.58-1.51,1.8-2.71,3.33-3.25M48.19,33.66c.46.6,1.14,1.1,1.96,1.47.36.85.86,1.54,1.45,2.01-1.6-.57-2.87-1.86-3.41-3.48M55.3,37.14c.6-.47,1.09-1.16,1.46-2.01.82-.37,1.5-.87,1.95-1.47-.54,1.62-1.8,2.91-3.41,3.48"/>
          <path class="cls-9" d="M43.24,32.29s.84.31,1.16.58c.31.3.62,1.35.97,2.05.34.69,1.09,2,3.04,2.69,1.94.69,4.66,1.15,4.44,7.6,0,0-.26.24-.82-1.25-.56-1.5-.66-2.32-2.12-3.17-1.48-.85-4.9-1.68-6.68-8.51"/>
          <path class="cls-9" d="M63.66,32.29s-.84.31-1.16.58c-.32.3-.64,1.35-.97,2.05-.35.69-1.1,2-3.04,2.69-1.94.69-4.66,1.15-4.44,7.6,0,0,.25.24.81-1.25.56-1.5.66-2.32,2.13-3.17,1.47-.85,4.89-1.68,6.67-8.51"/>
          <path class="cls-4" d="M43.24,31.37s.84.29,1.16.58c.31.28.62,1.35.97,2.03.34.69,1.09,2.01,3.04,2.69,1.94.69,4.66,1.16,4.44,7.62,0,0-.26.25-.82-1.26-.56-1.5-.66-2.32-2.12-3.17-1.48-.83-4.9-1.68-6.68-8.49"/>
          <path class="cls-5" d="M43.24,31.92s.84.31,1.16.59c.31.29.62,1.34.97,2.03.34.69,1.09,2,3.04,2.7,1.94.68,4.66,1.16,4.44,7.6,0,0-.26.25-.82-1.25-.56-1.5-.66-2.31-2.12-3.16-1.48-.85-4.9-1.68-6.68-8.51"/>
          <path class="cls-4" d="M63.66,31.37s-.84.29-1.16.58c-.32.28-.64,1.35-.97,2.03-.35.69-1.1,2.01-3.04,2.69-1.94.69-4.66,1.16-4.44,7.62,0,0,.25.25.81-1.26.56-1.5.66-2.32,2.13-3.17,1.47-.83,4.89-1.68,6.67-8.49"/>
          <path class="cls-5" d="M63.66,31.92s-.84.31-1.16.59c-.32.29-.64,1.34-.97,2.03-.35.69-1.1,2-3.04,2.7-1.94.68-4.66,1.16-4.44,7.6,0,0,.25.25.81-1.25.56-1.5.66-2.31,2.13-3.16,1.47-.85,4.89-1.68,6.67-8.51"/>
          <path class="cls-9" d="M54.26,32.64l-.63-.57s0-.25-.18-.31c-.18.06-.17.31-.17.31l-.63.57c-.59.52-.08.77.2.92.28.16.3.49.3.49l-.09,2.23c-.15.29.04.38.04.38,0,0,.13-.06.16-.11.01-.06-.05-.22-.05-.22,0,0,.08-.46.12-.81.05-.35.14-.35.14-.35,0,0,.09,0,.13.35.05.35.13.81.13.81,0,0-.07.16-.05.22.02.06.14.11.14.11,0,0,.2-.08.05-.38l-.1-2.23s.02-.34.3-.49c.28-.15.79-.4.2-.92"/>
        </g>
      </g>
    </g>
  </g>
  <g>
    <g>
      <polygon class="cls-7" points="241.8 18.72 241.28 18.91 241.45 18.38 241.11 17.94 241.66 17.94 241.98 17.49 242.15 18.01 242.68 18.17 242.23 18.5 242.25 19.05 241.8 18.72"/>
      <polygon class="cls-7" points="239.26 18.11 238.9 18.53 238.78 17.99 238.27 17.78 238.75 17.5 238.79 16.95 239.2 17.32 239.74 17.19 239.52 17.7 239.81 18.17 239.26 18.11"/>
      <polygon class="cls-7" points="236.71 18.13 236.61 18.67 236.24 18.26 235.69 18.34 235.97 17.85 235.73 17.36 236.27 17.47 236.67 17.09 236.73 17.64 237.22 17.9 236.71 18.13"/>
      <polygon class="cls-7" points="247.09 20.21 246.74 20.6 246.86 21.13 246.37 20.91 245.92 21.19 245.97 20.66 245.56 20.31 246.09 20.2 246.29 19.7 246.56 20.16 247.09 20.21"/>
      <polygon class="cls-7" points="243.99 19.5 243.44 19.4 243.85 19.03 243.78 18.48 244.26 18.75 244.76 18.51 244.65 19.05 245.03 19.45 244.48 19.51 244.21 20 243.99 19.5"/>
      <polygon class="cls-7" points="247.47 22.42 247.3 21.89 247.82 22.07 248.27 21.75 248.26 22.3 248.71 22.63 248.18 22.78 248 23.31 247.69 22.85 247.14 22.85 247.47 22.42"/>
    </g>
    <path class="cls-6" d="M253.28,53.99c.7,0,1.17-.35,1.17-.94h0c0-.55-.41-.76-1.08-.91-.4-.09-.5-.15-.5-.28h0c0-.11.09-.19.29-.19.26,0,.54.1.81.28l.4-.57c-.31-.25-.7-.38-1.19-.38-.69,0-1.12.39-1.12.92h0c0,.6.47.78,1.09.92.39.09.49.16.49.28h0c0,.13-.12.21-.33.21-.33,0-.65-.12-.94-.35l-.45.53c.35.32.84.48,1.35.48M249.36,52.44v-.69h.52c.27,0,.43.12.43.34h0c0,.22-.16.35-.43.35h-.53ZM248.56,53.94h.8v-.87h.35l.58.87h.92l-.69-1.01c.36-.15.59-.45.59-.89h0c0-.29-.09-.52-.26-.68-.19-.2-.5-.31-.94-.31h-1.37v2.89ZM245.71,52.8l.33-.82.32.82h-.65ZM244.43,53.94h.84l.21-.52h1.11l.21.52h.86l-1.23-2.91h-.77l-1.23,2.91ZM241.29,53.94h2.34v-.68h-1.55v-.46h1.39v-.63h-1.39v-.44h1.53v-.68h-2.32v2.89ZM238.52,53.94h.8v-1.09l1.1-1.79h-.9l-.6,1.05-.59-1.05h-.91l1.1,1.81v1.08Z"/>
    <path class="cls-8" d="M232.83,13.58c0-.27-.08-.53-.23-.74,0,0,.02,0,.02,0,0,0-.02,0-.03,0-.22-.32,0-.54-.42-.56-.01,0-.61,0-.63,0h-9.56s-.03,0-.04,0c-.42.02-.78.24-1,.56,0,0-.02,0-.03,0,0,0,.02,0,.02,0-.14.21-.23.46-.23.74v4.63c0,.72-.58,1.3-1.3,1.3h-4.63c-.72,0-1.3.58-1.3,1.3v9.54c0,.72.58,1.3,1.3,1.3h4.63c.72,0,1.3.58,1.3,1.3v4.63c0,.3.1.57.27.79,0,0-.01,0-.02,0,.24.31.61.51,1.03.51h5.26l-.07-.09-1.41-11.06,7.05-12.77v-1.38Z"/>
    <path class="cls-6" d="M238.73,11.47c.49,0,.82-.25.82-.66h0c0-.38-.29-.53-.75-.64-.28-.06-.35-.1-.35-.2h0c0-.08.07-.14.2-.14.18,0,.38.07.57.2l.28-.4c-.22-.18-.49-.27-.83-.27-.49,0-.78.27-.78.65h0c0,.42.33.54.76.64.27.06.34.11.34.19h0c0,.09-.08.14-.23.14-.23,0-.46-.08-.66-.24l-.31.37c.25.22.59.34.95.34M236.22,11.47c.57,0,.95-.29.95-.94v-1.12h-.57v1.14c0,.28-.15.42-.37.42s-.37-.14-.37-.43v-1.12h-.57v1.14c0,.63.36.93.94.93M233.5,10.97c-.31,0-.52-.25-.52-.55h0c0-.3.21-.55.51-.55s.52.25.52.55h0c0,.3-.21.55-.51.55M233.49,11.47c.62,0,1.09-.47,1.09-1.05h0c0-.59-.46-1.05-1.09-1.05s-1.09.47-1.09,1.05h0c0,.59.46,1.05,1.09,1.05M231.11,11.43h.56v-2.02h-.56v2.02ZM229.14,10.38v-.49h.37c.19,0,.3.08.3.24h0c0,.15-.11.25-.3.25h-.37ZM228.58,11.43h.56v-.61h.25l.41.61h.65l-.48-.71c.25-.11.42-.31.42-.62h0c0-.21-.06-.36-.18-.48-.14-.14-.35-.22-.66-.22h-.96v2.02ZM226.77,10.97c-.31,0-.52-.25-.52-.55h0c0-.3.21-.55.51-.55s.52.25.52.55h0c0,.3-.21.55-.51.55M226.77,11.47c.62,0,1.09-.47,1.09-1.05h0c0-.59-.46-1.05-1.09-1.05s-1.09.47-1.09,1.05h0c0,.59.46,1.05,1.09,1.05M223.65,11.43h1.54v-.49h-.98v-1.53h-.56v2.02ZM222.02,11.47c.37,0,.67-.14.88-.31v-.91h-.93v.41h.4v.25c-.08.05-.19.08-.32.08-.32,0-.55-.23-.55-.56h0c0-.32.23-.56.52-.56.2,0,.34.07.49.19l.33-.4c-.21-.19-.47-.29-.82-.29-.63,0-1.09.46-1.09,1.05h0c0,.62.47,1.05,1.1,1.05"/>
    <g>
      <polygon class="cls-1" points="239.46 9.02 239.78 8.48 235.47 5.98 233.8 9.02 239.46 9.02"/>
      <path class="cls-1" d="M248.93,26.56c-.68-1.46-1.58-2.72-2.7-3.78s-2.42-1.88-3.87-2.46c-1.45-.58-2.96-.88-4.52-.88-.66,0-1.41.03-2.25.1-.84.07-1.77.32-2.8.76l4.75-8.03h-5.53l-5.92,10.75c-.85,1.59-1.55,3.11-2.12,4.57s-.85,2.93-.85,4.41c0,1.93.37,3.68,1.1,5.26.74,1.58,1.72,2.93,2.96,4.06,1.23,1.13,2.65,2,4.25,2.63,1.6.63,3.26.94,4.99.94,1.83,0,3.56-.3,5.19-.9,1.63-.6,1.48-1.48,2.72-2.63,1.23-1.15,1.06-2.56,1.79-4.24.73-1.68,3.83-3.59,3.83-5.74,0-1.76-.34-3.37-1.02-4.84ZM244.5,35.49c-.47,1.03-1.11,1.92-1.9,2.66-.8.74-1.72,1.32-2.77,1.73-1.05.41-2.15.61-3.3.61-1.24,0-2.38-.19-3.44-.57s-1.98-.93-2.75-1.65-1.39-1.6-1.83-2.65c-.44-1.05-.66-2.23-.66-3.55,0-1.39.22-2.61.66-3.67.44-1.06,1.04-1.93,1.8-2.61.76-.69,1.57-1.22,2.43-1.6s1.89-.57,3.11-.57,2.44.18,3.57.53c1.13.36,2.12.89,2.98,1.6.85.71,1.53,1.59,2.04,2.65s.76,2.28.76,3.67c0,1.25-.24,2.39-.71,3.43Z"/>
    </g>
    <path class="cls-3" d="M255.39,54.02v-9.39h-15.97l.05-4.01,11.74-20,4.05,2.32-9.72,17.32h9.85v-6.35l4.97-.36v6.7h3.29v4.37h-3.29v9.39h-4.97Z"/>
  </g>
</svg>